<svg fill="#327ccb" height="200px" width="200px" version="1.1" id="Capa_1" xmlns="http://www.w3.org/2000/svg" xmlns:xlink="http://www.w3.org/1999/xlink" viewBox="0 0 451.731 451.731" xml:space="preserve"><g id="SVGRepo_bgCarrier" stroke-width="0"></g><g id="SVGRepo_tracerCarrier" stroke-linecap="round" stroke-linejoin="round"></g><g id="SVGRepo_iconCarrier"> <g> <g id="XMLID_103_"> <path id="XMLID_105_" d="M433.672,326.154H177.59c-15.148,0-27.537-11.877-28.081-27.101c-0.322-9.026-0.178-17.876,0.436-26.702 h-12.401c-3.988-2.034-105.11-53.61-112.544-57.401V104.147c0-6.904-5.596-12.5-12.5-12.5S0,97.243,0,104.147 c0,3.942,0,220.241,0,228.007c0,6.903,5.597,12.5,12.5,12.5h21.786v7.325c0,4.476,3.628,8.104,8.104,8.104h40.652 c4.476,0,8.104-3.628,8.104-8.104v-7.325h272.08v7.325c0,4.476,3.628,8.104,8.104,8.104h40.652c4.476,0,8.104-3.628,8.104-8.104 v-7.325h19.145c6.903,0,12.5-5.597,12.5-12.5v-12.531C446.829,323.727,440.519,326.154,433.672,326.154z"></path> <circle id="XMLID_914_" cx="85.551" cy="180.9" r="33.403"></circle> <path id="XMLID_924_" d="M132.381,244.115c19.049,7.106,7.955,2.968,19.927,7.434c1.305-8.176,2.98-15.83,4.91-22.958 l-4.474-6.954l48.668,47.045c3.773,3.648,9.286,5.332,14.654,4.155l62.898-13.791c8.678-1.903,14.201-10.485,12.292-19.195 c0-0.002-0.001-0.004-0.002-0.006c-1.861-8.476-10.318-14.207-19.157-12.292c-0.012,0.003-0.024,0.003-0.037,0.006l-54.457,11.94 l0,0c-5.046-4.878-42.21-40.802-47.45-45.867c4.284-8.919,8.642-16.224,12.446-21.9l-20.381-7.603 c-11.864-4.426-24.757,1.807-29.027,13.252c0,0.001-0.001,0.002-0.001,0.002l-14.065,37.703c-0.001,0.004-0.002,0.007-0.004,0.011 C114.82,226.644,120.62,239.727,132.381,244.115z"></path> <path id="XMLID_927_" d="M268.748,212.447c17.364-3.807,33.994,7.54,37.622,24.091c3.72,16.967-6.993,33.875-24.091,37.622 l-62.898,13.791c-14.503,3.18-26.96-4.651-30.98-10.896l-15.946-24.783c-2.342,13.657-3.568,29.016-2.959,46.068 c0.156,4.358,3.732,7.815,8.094,7.815h256.082c3.974,0,7.361-2.881,7.999-6.803l6.24-38.379 c4.691-28.854-12.886-56.527-40.972-64.635c-43.8-12.644-109.12-28.424-162.308-28.424c-12.985,0-25.237,0.939-36.288,3.094 c0,0-10.954,11.253-21.251,33.532l32.966,18.582L268.748,212.447z"></path> </g> </g> </g></svg>